<svg xmlns="http://www.w3.org/2000/svg" viewBox="0 0 485.7 410.07"><defs><style>.cls-1{fill:#ebebeb;}.cls-2{fill:#fafafa;}.cls-3{fill:#e0e0e0;}.cls-4{fill:#f5f5f5;}.cls-5{fill:#fff;}.cls-6{fill:#eb996e;}.cls-7{fill:#263238;}.cls-10,.cls-8{fill:#37b34a;}.cls-9{fill:#ffbe9d;}.cls-10{font-size:27px;font-family:MyriadPro-Regular, Myriad Pro;}.cls-11{letter-spacing:-0.01em;}.cls-12{letter-spacing:-0.01em;}.cls-13{letter-spacing:-0.01em;}.cls-14{fill:#ffdf9d;}.cls-15{fill:#ebc26e;}.cls-16{fill:#272638;}.cls-17{fill:#464564;}.cls-18{fill:#e26f34;}.cls-19{fill:none;stroke:#fff;stroke-miterlimit:10;stroke-width:0.02px;}.cls-20{opacity:0.3;}.cls-21{opacity:0.2;}.cls-22{fill:#201f37;}</style></defs><g id="Background_Complete" data-name="Background Complete"><rect class="cls-1" x="341.78" y="53.38" width="105.35" height="99.92" rx="6.79" transform="translate(-11.65 43.27) rotate(-12.49)"/><path class="cls-2" d="M414.94,114.2a6.72,6.72,0,0,1-.69.2l-2,.48-7.35,1.73-24.72,5.62-.2,0-.08-.19c-.47-1.27-1-2.61-1.49-4-4.33-11.63-8.19-22-10.72-28.8l.18.09-6.61,1.41-1.76.36a4.61,4.61,0,0,1-.61.09,5.32,5.32,0,0,1,.59-.18l1.75-.43,6.57-1.54.13,0,.05.12c2.56,6.77,6.48,17.13,10.88,28.74l1.49,4-.27-.15,24.75-5.47,7.38-1.58,2-.4A3.33,3.33,0,0,1,414.94,114.2Z" transform="translate(1.36 -44.48)"/><path class="cls-2" d="M377.53,115l.17-.06.5-.13,2-.48,7.43-1.74,25.65-5.83-.18.23c-.21-4.49-.43-9.35-.66-14.37-.12-2.59-.23-5.13-.34-7.55l.28.22L382.1,92l-9,1.94-2.42.5-.63.12a.72.72,0,0,1-.22,0l.21-.07.62-.16,2.41-.58L382,91.69l30.24-6.85.28-.07v.29c.11,2.42.23,5,.35,7.55.22,5,.44,9.88.64,14.37v.2l-.19,0-25.69,5.67-7.46,1.6-2,.41-.52.09Z" transform="translate(1.36 -44.48)"/><path class="cls-2" d="M391,129.49s-.11-.3-.38-.79a3.63,3.63,0,0,0-1.68-1.52,3.44,3.44,0,0,0-3.22.27,3.35,3.35,0,0,0,1.38,6.13,3.41,3.41,0,0,0,3-1.13,3.58,3.58,0,0,0,.87-2.09c0-.55,0-.87,0-.87a1.79,1.79,0,0,1,.17.87,3.55,3.55,0,0,1-.79,2.31A3.76,3.76,0,0,1,387,134a3.77,3.77,0,0,1-1.55-6.94,3.71,3.71,0,0,1,3.59-.2,3.53,3.53,0,0,1,1.7,1.74A1.87,1.87,0,0,1,391,129.49Z" transform="translate(1.36 -44.48)"/><path class="cls-2" d="M413.35,124.47s-.11-.3-.38-.78a3.56,3.56,0,0,0-1.69-1.52,3.36,3.36,0,1,0,1.18,5.26,3.54,3.54,0,0,0,.88-2.09c0-.55,0-.86,0-.87a1.82,1.82,0,0,1,.17.88,3.53,3.53,0,0,1-.8,2.3,3.71,3.71,0,0,1-3.33,1.35,3.77,3.77,0,0,1-1.56-6.94,3.73,3.73,0,0,1,3.6-.2,3.53,3.53,0,0,1,1.7,1.74A1.89,1.89,0,0,1,413.35,124.47Z" transform="translate(1.36 -44.48)"/><path class="cls-2" d="M419.56,79.75a10.17,10.17,0,1,1-12.15-7.7A10.17,10.17,0,0,1,419.56,79.75Z" transform="translate(1.36 -44.48)"/><path class="cls-3" d="M414.19,77.06a8.78,8.78,0,0,1-.93,1.89c-.62,1.14-1.52,2.69-2.53,4.39l-1.09,1.81-.11.19-.19-.11a33.73,33.73,0,0,1-4.34-2.6,32.15,32.15,0,0,1,4.56,2.2l-.31.08c.34-.57.7-1.18,1.07-1.82,1-1.7,1.95-3.22,2.65-4.31A9.35,9.35,0,0,1,414.19,77.06Z" transform="translate(1.36 -44.48)"/><path class="cls-3" d="M72.28,194.38c-1.84-6.54-10.33-5.9-10.33-5.9l.23,4.54c4.91-.85,8,4.91,8,4.91Z" transform="translate(1.36 -44.48)"/><path class="cls-3" d="M197,118.94c9.86,3,16-8.37,16-8.37l-6-3.42c-2.93,7-12.77,6.16-12.77,6.16Z" transform="translate(1.36 -44.48)"/><path class="cls-3" d="M278.74,179.93c-1.9-5.44-9.06-4.45-9.06-4.45l.44,3.83c4.11-1,7,3.73,7,3.73Z" transform="translate(1.36 -44.48)"/><path class="cls-3" d="M165.76,52.68c-1.9-5.43-9.06-4.44-9.06-4.44l.44,3.83c4.11-1,7,3.73,7,3.73Z" transform="translate(1.36 -44.48)"/><path class="cls-1" d="M80.42,122.19c-1.9-5.43-9.06-4.45-9.06-4.45l.44,3.84c4.11-1,7,3.73,7,3.73Z" transform="translate(1.36 -44.48)"/><path class="cls-1" d="M62.49,71.41c-5.68.93-6,8.15-6,8.15l3.86.23c-.25-4.21,4.89-6.24,4.89-6.24Z" transform="translate(1.36 -44.48)"/><path class="cls-1" d="M21.59,240.39c9.85,3,16-8.37,16-8.37l-6-3.42c-2.93,7-12.77,6.16-12.77,6.16Z" transform="translate(1.36 -44.48)"/><path class="cls-3" d="M302.2,119.57c.67-4.56-4.77-6.52-4.77-6.52l-1.12,2.88c3.28.84,3.58,5.25,3.58,5.25Z" transform="translate(1.36 -44.48)"/><path class="cls-1" d="M269.45,69.47c-3.84,2.55-1.66,7.91-1.66,7.91l2.88-1.09c-1.56-3,1.52-6.17,1.52-6.17Z" transform="translate(1.36 -44.48)"/><polygon class="cls-4" points="437.45 127.09 424.15 166.26 463.48 174.07 465.74 132.71 437.45 127.09"/><path class="cls-5" d="M460,182.39c.05,0-.07.44-.44,1.12a11.52,11.52,0,0,1-2,2.63,10.64,10.64,0,0,1-4.17,2.6,11.69,11.69,0,0,1-6,.31,12,12,0,0,1-5.49-2.47,9.49,9.49,0,0,1-2.81-4,10.57,10.57,0,0,1-.68-3.23,2.76,2.76,0,0,1,.09-1.2,18.78,18.78,0,0,0,1.07,4.24,9.64,9.64,0,0,0,2.77,3.7,11.78,11.78,0,0,0,5.18,2.26,11.38,11.38,0,0,0,5.66-.23,10.87,10.87,0,0,0,4-2.32A20.7,20.7,0,0,0,460,182.39Z" transform="translate(1.36 -44.48)"/></g><g id="Background_Simple" data-name="Background Simple"><path class="cls-1" d="M462.58,168.72c-10.12-32-28.17-62.66-55.91-80.65a103.51,103.51,0,0,0-88-11.29c-29,9.69-53.37,33.14-64.62,62.24-6,15.59-8.39,32.4-13.39,48.37s-13.38,31.88-27.58,40.19c-15.93,9.33-35.83,7.27-53.57,2.46S124.4,217.9,106.06,217.5c-38-.85-67.19,33.92-75.46,71.95C21.36,332,26.51,376.08,82.12,406.86c.94.52,1.21.7,1.13.71,20.18,12.77,32,22.27,54.33,28.37,52.69,12.88,110.83,2.83,152.95,0,54.76-3.69,73.17-18.59,107.46-43.83,32.92-24.21,56.78-60.63,67.77-100.61S475.07,208.23,462.58,168.72Z" transform="translate(1.36 -44.48)"/><path class="cls-1" d="M83.25,407.57l-1.13-.71C78.81,405.58,83,407.59,83.25,407.57Z" transform="translate(1.36 -44.48)"/><path class="cls-1" d="M175.1,60.33c-10.83-8.5-25.82-11-39.14-7.51-11.57,3-22.37,10.84-26.48,22.07-3.3,9-2,19.29,2.21,27.93a46.26,46.26,0,0,0,69.34,17l-1.85.74c6.63-4.55,7.84-13.85,9.91-23.65C191.93,83.47,185.92,68.83,175.1,60.33Z" transform="translate(1.36 -44.48)"/><path class="cls-6" d="M26.42,160.61c3.22,0,3.22-5,0-5s-3.22,5,0,5Z" transform="translate(1.36 -44.48)"/><path class="cls-6" d="M32.54,160.61c3.21,0,3.22-5,0-5s-3.23,5,0,5Z" transform="translate(1.36 -44.48)"/><path class="cls-6" d="M38.65,160.61c3.22,0,3.23-5,0-5s-3.22,5,0,5Z" transform="translate(1.36 -44.48)"/></g><g id="Desk"><path class="cls-7" d="M474.07,454.17c0,.14-102.56.26-229.06.26s-229.08-.12-229.08-.26,102.54-.26,229.08-.26S474.07,454,474.07,454.17Z" transform="translate(1.36 -44.48)"/></g><g id="Screen"><path class="cls-8" d="M136.54,237.47A29.42,29.42,0,1,1,166,208.06,29.45,29.45,0,0,1,136.54,237.47Zm0-55.8a26.39,26.39,0,1,0,26.38,26.39A26.41,26.41,0,0,0,136.54,181.67Z" transform="translate(1.36 -44.48)"/><path class="cls-8" d="M134.4,217.12a1.54,1.54,0,0,1-1-.38c-2.57-2.26-7-6.19-7.54-7a1.54,1.54,0,0,1,.42-2.11,1.52,1.52,0,0,1,2.09.4c.41.51,3.2,3.06,6,5.54l14.89-14.13a1.52,1.52,0,1,1,2.09,2.2l-15.9,15.09A1.51,1.51,0,0,1,134.4,217.12Z" transform="translate(1.36 -44.48)"/><path class="cls-5" d="M159.89,326.46c3.22,0,3.22-5,0-5s-3.22,5,0,5Z" transform="translate(1.36 -44.48)"/><path class="cls-5" d="M1.05,247.71c3.22,0,3.22-5,0-5s-3.22,5,0,5Z" transform="translate(1.36 -44.48)"/><path class="cls-9" d="M19.08,325.19H256.75" transform="translate(1.36 -44.48)"/><path class="cls-6" d="M18.54,326.13H256.22c.64,0,1.59-.19,1.9-.84s-.24-1-.83-1H19.61c-.64,0-1.59.18-1.9.84s.24,1,.83,1Z" transform="translate(1.36 -44.48)"/><path class="cls-6" d="M258.79,324.81V150.67c0-.43-2.9,0-2.9.77V325.58c0,.42,2.9,0,2.9-.77Z" transform="translate(1.36 -44.48)"/><path class="cls-6" d="M19.08,325.19V151.05" transform="translate(1.36 -44.48)"/><path class="cls-6" d="M20.52,324.81V150.67c0-.43-2.89,0-2.89.77V325.58c0,.42,2.89,0,2.89-.77Z" transform="translate(1.36 -44.48)"/><path class="cls-6" d="M19.08,151.05H256.75" transform="translate(1.36 -44.48)"/><path class="cls-6" d="M18.54,152H256.22c.64,0,1.59-.19,1.9-.84s-.24-1-.83-1H19.61c-.64,0-1.59.18-1.9.84s.24,1,.83,1Z" transform="translate(1.36 -44.48)"/><text class="cls-10" transform="translate(46.37 219.9)">Nous <tspan class="cls-11" x="63.88" y="0">a</tspan><tspan class="cls-12" x="76.68" y="0">v</tspan><tspan x="89.4" y="0">ons bien </tspan><tspan class="cls-12" x="-20.64" y="32.4">r</tspan><tspan x="-12.08" y="32.4">eçu </tspan><tspan class="cls-13" x="34.14" y="32.4">v</tspan><tspan x="46.86" y="32.4">ot</tspan><tspan class="cls-12" x="70.62" y="32.4">r</tspan><tspan x="79.18" y="32.4">e demande</tspan></text><path class="cls-6" d="M20.54,166H255.35a3.45,3.45,0,0,0,2-.55c.37-.3.47-.64-.17-.64H22.42a3.52,3.52,0,0,0-2.05.55c-.36.31-.47.64.17.64Z" transform="translate(1.36 -44.48)"/></g><g id="Character"><path class="cls-14" d="M436.92,274.08s12.13-7.38,14.87-5.21c3.95,3.13,5.26,8.42,5.26,8.42s6.41-24.45,12.53-23.52c3.51.53,1.79,3.26.21,6.7-1.46,3.18-4,14.88-4,14.88s11.6-13.76,15-13.51c2.64.19,3,2.51-.78,6.23S470,283.51,470,283.51s8.12-7.58,11.48-7.62c2.68,0,4.41,1.83.94,4.83s-8.71,5.27-11.5,10.71c-3.45,6.71-10.8,23.42-10.8,23.42l-25.72-9.1s-4.19-17.07-4.36-21.22c0,0,.35-8.76.3-10.32s4.09-2,5.35,1,.68,6.14,1.19,8.13,1.42,3.83,2.88,4.73,5.16.95,6.11-.15a15.87,15.87,0,0,0,2.34-6.28,28.62,28.62,0,0,0-.07-5.09S437.44,280.93,436.92,274.08Z" transform="translate(1.36 -44.48)"/><path class="cls-14" d="M147.88,353.71,130,347s-18.2-10.65-21.57-6.87a3.74,3.74,0,0,0-5.2,2.13c-.93,2.22,2.13,5.45,2.13,5.45s-1,1,.56,4.23,18.78,13.57,18.78,13.57,22.46,12.25,31.54,18.1l15.67-21.31-2.18-.81s-1.29-10.62-5.64-13.45c-4.73-3.09-10.44-11.42-11.69-14.69s-7.29-1.76-6.28,5,6.28,8.55,5.78,13.07S147.88,353.71,147.88,353.71Z" transform="translate(1.36 -44.48)"/><path class="cls-15" d="M120.47,356.19a74.62,74.62,0,0,1-7.77-4.06,73,73,0,0,1-7.53-4.52,77.75,77.75,0,0,1,7.78,4.06A73.43,73.43,0,0,1,120.47,356.19Z" transform="translate(1.36 -44.48)"/><path class="cls-15" d="M129.2,351.16a22.42,22.42,0,0,1-3.21-1.27c-2-.85-4.64-2.08-7.54-3.56a81.71,81.71,0,0,1-7.24-4.13c-.89-.59-1.6-1.08-2.07-1.45s-.73-.58-.71-.61,1.15.66,3,1.74,4.39,2.51,7.28,4,5.54,2.75,7.45,3.68A22.74,22.74,0,0,1,129.2,351.16Z" transform="translate(1.36 -44.48)"/><path class="cls-15" d="M133,361a12,12,0,0,1-1.59-.86l-4.21-2.51,0,0,0-.06a58.42,58.42,0,0,0-3-5.81,14.51,14.51,0,0,0-2.27-3,2.87,2.87,0,0,0-3.52-.26,2,2,0,0,0-.57.51.33.33,0,0,1,0,.12l.07.22c0,.15.1.3.15.45.22.6.46,1.18.69,1.76l1.37,3.34c.88,2.12,1.7,4.07,2.41,5.77l0-.06L126,364.8c.39.46.7.85,1,1.17a2.08,2.08,0,0,1,.31.43,2.05,2.05,0,0,1-.39-.36l-1-1.1c-1-1-2.21-2.42-3.73-4.09l0,0v0c-.75-1.66-1.59-3.6-2.5-5.73l-1.4-3.34c-.23-.58-.47-1.16-.69-1.77-.06-.15-.12-.3-.17-.47l-.07-.24a1.7,1.7,0,0,1-.06-.35,1.14,1.14,0,0,1,.37-.53A2.73,2.73,0,0,1,118,348a3.36,3.36,0,0,1,4.13.32,13.84,13.84,0,0,1,2.35,3.14,51,51,0,0,1,3,5.91l-.07-.09,4.12,2.66A12,12,0,0,1,133,361Z" transform="translate(1.36 -44.48)"/><path class="cls-15" d="M150.88,361.18a11.06,11.06,0,0,1-2.2-.54,21.79,21.79,0,0,0-5.28-.93,9.66,9.66,0,0,0-5.1,1.25c-1.17.7-1.69,1.42-1.76,1.35a4.06,4.06,0,0,1,1.56-1.66,9.15,9.15,0,0,1,5.31-1.46,18,18,0,0,1,5.38,1.1A9.22,9.22,0,0,1,150.88,361.18Z" transform="translate(1.36 -44.48)"/><path class="cls-15" d="M149.54,356.46c.11.09-.33.86-.76,1.86s-.71,1.84-.86,1.81a3,3,0,0,1,.38-2C148.76,357.05,149.43,356.37,149.54,356.46Z" transform="translate(1.36 -44.48)"/><path class="cls-16" d="M252.56,271.48c1.24-8.43,11.05-20.51,19.73-20.52a22.43,22.43,0,0,1-.19-24.65c3.35-5,8.76-8.69,11-14.25,2.59-6.29.6-13.39.85-20.17.36-9.92,5.52-19,10.55-27.59,4.6-7.89,10.21-16.54,19.27-18.48,5.73-1.23,11.67.58,17.05,2.87,25.75,11,45.77,34.08,52.64,60.76,1.65,6.39,2.75,13.3,7.2,18.24,4.71,5.22,13,8.06,14.39,14.9,1,4.9-2.14,9.83-1.67,14.82.4,4.17,8.22,16.34,10,20.14,3.1,6.55,2,13.62-1.18,20.14s-11.21,12.88-18.35,14.65l-79.8-26.59c-7.51,4.28-15,20.81-23.61,21.83s-19.13,4.76-27.42-4.31C254.39,293.76,251.33,279.9,252.56,271.48Z" transform="translate(1.36 -44.48)"/><path class="cls-16" d="M384.89,192.11c-.9,6.67.93,17.71,4.58,23.42,2.45,3.83,6.54,6.32,10.58,8.51s8.25,4.29,11.31,7.68,4.7,8.45,2.65,12.5c7.19,2.68,10.42,11.84,7.78,18.93s-9.87,11.84-17.42,13.26l-32.92-9.9-7.23-42,19-32.4" transform="translate(1.36 -44.48)"/><path class="cls-17" d="M388.93,234.93a3.65,3.65,0,0,1,.64.28,17.83,17.83,0,0,1,1.8.93,24.05,24.05,0,0,1,5.77,4.81,26,26,0,0,1,5.47,9.87,24.26,24.26,0,0,1,.09,14l-.12-.31a24.76,24.76,0,0,1,5.35,4.07,25,25,0,0,1,7.18,14.66,24,24,0,0,1-2.36,13.17,24.88,24.88,0,0,1-5.4,7.27,19.48,19.48,0,0,1-1.92,1.56,6.26,6.26,0,0,1-.71.48,4.3,4.3,0,0,1,.65-.56c.44-.34,1.07-.9,1.84-1.63a25.66,25.66,0,0,0,5.21-7.28,23.82,23.82,0,0,0,2.21-13A24.6,24.6,0,0,0,407.56,269a24,24,0,0,0-5.23-4l-.19-.1.07-.2a24,24,0,0,0,0-13.73,26,26,0,0,0-5.29-9.78,24.59,24.59,0,0,0-5.61-4.87c-.72-.5-1.35-.77-1.74-1A4,4,0,0,1,388.93,234.93Z" transform="translate(1.36 -44.48)"/><path class="cls-18" d="M291.56,278.42s-14.71,4.47-19.86,12c-3.65,5.31-41,86.17-41,86.17l-56.68-17-20.27,26.77,63.07,34.95a38.41,38.41,0,0,0,37.55-.16h0a38.44,38.44,0,0,0,15.14-15.66l16-30.73Z" transform="translate(1.36 -44.48)"/><path class="cls-18" d="M276.51,454.55l8.85-38.15-6.71-27.7c-4.31-14.26-8-37.5-3.32-56.21L291,278.68l17.23-7.93L347.68,264c1.52.5,41.25,11.72,41.25,11.72a62.35,62.35,0,0,1,7.7,2.15l4.56,29.46-13.7,48.56-6,48.37,13.1,50.32Z" transform="translate(1.36 -44.48)"/><path class="cls-19" d="M273.58,335.86" transform="translate(1.36 -44.48)"/><path class="cls-19" d="M366,339.42" transform="translate(1.36 -44.48)"/><path class="cls-14" d="M299.3,274.86l11.44-5.12,51.55.72,12.19,7.08s-42.58,47-53.27,48.56C294.32,330,299.3,274.86,299.3,274.86Z" transform="translate(1.36 -44.48)"/><path class="cls-18" d="M395.51,277.44s7.73,1.74,14.34,15.86,17.32,53.41,17.32,53.41l4.58-41.64,37.27,4.1L461.8,408.7s-13.18,19.13-35.25,17.36-50.07-71.5-50.07-71.5Z" transform="translate(1.36 -44.48)"/><path class="cls-16" d="M421.36,397.57a.87.87,0,0,1,0-.24c0-.19,0-.43,0-.71,0-.66.09-1.57.16-2.71.14-2.35.42-5.75.81-9.94.78-8.39,2.2-20,3.94-32.68s3.22-24.28,4.09-32.66c.44-4.19.78-7.58,1-9.92.11-1.14.2-2,.26-2.7,0-.28.06-.52.08-.7a.68.68,0,0,1,.05-.24.87.87,0,0,1,0,.24l0,.7c0,.67-.1,1.57-.17,2.71-.14,2.35-.42,5.75-.81,9.95-.78,8.39-2.2,19.95-3.94,32.69s-3.22,24.27-4.09,32.64c-.44,4.19-.77,7.58-1,9.93-.11,1.14-.19,2-.26,2.7,0,.28-.06.51-.08.7A.92.92,0,0,1,421.36,397.57Z" transform="translate(1.36 -44.48)"/><path class="cls-16" d="M231.35,398a3.16,3.16,0,0,1-.41-.74,21.49,21.49,0,0,1-.86-2.15,32.07,32.07,0,0,1-1.47-15.09c.15-1,.3-1.74.44-2.27a3.09,3.09,0,0,1,.26-.81c.09,0-.14,1.2-.33,3.13a38.85,38.85,0,0,0,0,7.53,39.45,39.45,0,0,0,1.47,7.4C231,396.89,231.43,398,231.35,398Z" transform="translate(1.36 -44.48)"/><path class="cls-16" d="M237.62,399s-.26-.24-.65-.74a25.55,25.55,0,0,1-1.56-2.21,38.42,38.42,0,0,1-3.88-8,37.85,37.85,0,0,1-1.93-8.7c-.11-1.13-.16-2.05-.16-2.69a3.69,3.69,0,0,1,.06-1c.09,0,.15,1.4.46,3.64a46,46,0,0,0,2.06,8.57,46.94,46.94,0,0,0,3.7,8C236.87,397.77,237.69,398.91,237.62,399Z" transform="translate(1.36 -44.48)"/><path class="cls-16" d="M281.75,310a7,7,0,0,1-.19.81c-.16.56-.37,1.32-.64,2.28-.57,2-1.38,4.89-2.38,8.39a186.09,186.09,0,0,0-5.92,28.09,70.25,70.25,0,0,0-.22,15.75A69.3,69.3,0,0,0,275,378c1.05,3.52,2.05,6.33,2.73,8.27l.79,2.24a4,4,0,0,1,.24.79,6,6,0,0,1-.34-.75l-.88-2.21c-.74-1.92-1.79-4.71-2.9-8.23a68.71,68.71,0,0,1-2.75-12.66,69.44,69.44,0,0,1,.18-15.87,172.48,172.48,0,0,1,6.09-28.13c1-3.54,1.92-6.38,2.54-8.35.3-.94.55-1.69.73-2.26A4,4,0,0,1,281.75,310Z" transform="translate(1.36 -44.48)"/><path class="cls-16" d="M386,375.62a1,1,0,0,1-.14-.25l-.35-.74c-.31-.69-.74-1.64-1.3-2.86s-1.25-2.77-2-4.55l-2.45-6.13c-.88-2.27-1.72-4.81-2.69-7.52-.43-1.37-.87-2.79-1.32-4.25-.23-.73-.45-1.48-.68-2.23s-.41-1.53-.61-2.31a101.81,101.81,0,0,1-3.53-20.71,59.89,59.89,0,0,1,2.16-20.87,37,37,0,0,1,8.25-15,28.88,28.88,0,0,1,9.31-6.82,22.26,22.26,0,0,1,2.95-1.1l.79-.22.27-.05-.26.11-.77.26a27.31,27.31,0,0,0-2.9,1.18,29.63,29.63,0,0,0-9.12,6.89,37,37,0,0,0-8.06,14.85,59.9,59.9,0,0,0-2.1,20.7,104.09,104.09,0,0,0,3.47,20.61q.3,1.17.6,2.31l.67,2.23c.44,1.46.87,2.88,1.29,4.25.95,2.7,1.77,5.24,2.63,7.52s1.67,4.33,2.37,6.14,1.4,3.33,1.92,4.59l1.21,2.9.3.76A.84.84,0,0,1,386,375.62Z" transform="translate(1.36 -44.48)"/><g class="cls-20"><path d="M371.76,330.53c-4.87,23.05-4.93,46.76,3.45,68.78.49,1.28,2.42,5.82,3.78,5.88,1.73.09,2.55-2.07,2.85-3.77.62-3.51,1-9.28,1.61-12.79.77-4.4,1.82-14.57,1.82-14.57s-4-9.22-5.8-14.16c-3.29-9.18-6.07-17.94-7.61-28.64" transform="translate(1.36 -44.48)"/></g><path class="cls-16" d="M367.78,419.83a2.72,2.72,0,0,1-.38.6c-.31.42-.7,1-1.2,1.67l-.88,1.2c-.33.43-.73.86-1.14,1.34a41.76,41.76,0,0,1-2.92,3.18l-1.79,1.75c-.63.6-1.35,1.16-2.06,1.77a59,59,0,0,1-4.78,3.63,61.34,61.34,0,0,1-25.42,9.9c-2.1.25-4.09.54-6,.57-.94,0-1.85.11-2.72.09l-2.51-.08a39,39,0,0,1-4.29-.36c-.63-.08-1.22-.13-1.75-.22l-1.46-.29-2-.41a3.38,3.38,0,0,1-.69-.19,4.63,4.63,0,0,1,.71.08l2,.32,1.46.25c.54.07,1.12.11,1.75.17a40.44,40.44,0,0,0,4.28.28l2.49.05c.86,0,1.76-.09,2.69-.12,1.87,0,3.84-.35,5.92-.61a62.7,62.7,0,0,0,25.23-9.83c1.71-1.22,3.37-2.33,4.77-3.56.71-.6,1.44-1.15,2.07-1.74s1.23-1.17,1.8-1.72a41,41,0,0,0,3-3.1c.42-.47.83-.89,1.17-1.31L366,422l1.27-1.61A5.37,5.37,0,0,1,367.78,419.83Z" transform="translate(1.36 -44.48)"/><path class="cls-16" d="M359.65,404.58a4.05,4.05,0,0,1-.13,1.09,25.7,25.7,0,0,1-.7,2.91,34.6,34.6,0,0,1-4.14,9,35.41,35.41,0,0,1-6.5,7.45,23.54,23.54,0,0,1-2.38,1.82,4,4,0,0,1-.94.57c-.05-.07,1.22-1,3.08-2.67a38.5,38.5,0,0,0,10.53-16.26C359.26,406.09,359.56,404.56,359.65,404.58Z" transform="translate(1.36 -44.48)"/><path class="cls-18" d="M341.5,139.44a40.51,40.51,0,0,1,35.22,60c-2.29,4.17-5.59,8.12-10.12,9.57a83.47,83.47,0,0,0-25.33-64.85" transform="translate(1.36 -44.48)"/><path class="cls-18" d="M357.83,143.06c-2.07-4.31.14-9.7,3.84-12.74s8.51-4.25,13.16-5.37,9.46-2.26,13.24-5.19c-.54,7.49-2.41,15.2-7.25,20.93s-13.25,8.93-20.17,6" transform="translate(1.36 -44.48)"/><path class="cls-18" d="M362.63,148c-3.18,1.34-7,.5-9.82-1.45a22.35,22.35,0,0,1-6.56-7.89A33.84,33.84,0,0,1,342,126.72a20,20,0,0,1,2.11-12.32c5.47,5.83,11.5,10.73,14.63,18.09,1.84,4.32,1.61,11.26-.36,15.52" transform="translate(1.36 -44.48)"/><path class="cls-16" d="M378.14,172.24a8.11,8.11,0,0,1,.27,1.39c.07.45.15,1,.2,1.65s.15,1.38.17,2.2a43.64,43.64,0,0,1-.11,5.73,49.42,49.42,0,0,1-1.1,6.94,50.3,50.3,0,0,1-2.14,6.7,46.79,46.79,0,0,1-2.49,5.17c-.38.72-.8,1.33-1.14,1.88a14.92,14.92,0,0,1-.92,1.38,8.12,8.12,0,0,1-.87,1.12,7.14,7.14,0,0,1,.7-1.23c.24-.38.53-.85.84-1.42s.71-1.18,1.06-1.91a49.91,49.91,0,0,0,2.37-5.17,49.73,49.73,0,0,0,3.43-19.18c0-.81-.06-1.54-.09-2.19s-.07-1.19-.11-1.65A6.81,6.81,0,0,1,378.14,172.24Z" transform="translate(1.36 -44.48)"/><path class="cls-16" d="M375,145.42a7.09,7.09,0,0,1-1.11.88,11.86,11.86,0,0,1-3.61,1.4,28.17,28.17,0,0,1-12.77-.73l-.14,0,0-.14c-.06-.3-.13-.63-.21-.95a22.51,22.51,0,0,1-.33-7.44,12.72,12.72,0,0,1,2.1-5.7,10.71,10.71,0,0,1,3-2.84,8.11,8.11,0,0,1,1.35-.66A8.8,8.8,0,0,1,362,130a11.55,11.55,0,0,0-2.77,2.87,12.78,12.78,0,0,0-1.93,5.57,22.68,22.68,0,0,0,.36,7.27c.07.31.14.63.21.92l-.18-.19a29.33,29.33,0,0,0,12.55.88,13.3,13.3,0,0,0,3.59-1.22A7.46,7.46,0,0,1,375,145.42Z" transform="translate(1.36 -44.48)"/><path class="cls-16" d="M379.11,132.46c0,.1-1.46.31-3.76,1a34.78,34.78,0,0,0-3.92,1.46,34.24,34.24,0,0,0-4.5,2.45,35.6,35.6,0,0,0-4.05,3.15,31.54,31.54,0,0,0-2.9,3c-1.54,1.83-2.32,3.1-2.4,3a3.8,3.8,0,0,1,.49-.93,20,20,0,0,1,1.62-2.35,29.65,29.65,0,0,1,2.86-3.14,29.56,29.56,0,0,1,8.68-5.69,27.88,27.88,0,0,1,4-1.37,20.6,20.6,0,0,1,2.8-.55A4.83,4.83,0,0,1,379.11,132.46Z" transform="translate(1.36 -44.48)"/><path class="cls-16" d="M362.42,147.87a.94.94,0,0,1,0,.3,4.27,4.27,0,0,1-.27.83,6.48,6.48,0,0,1-2,2.5,6.9,6.9,0,0,1-4.49,1.45,6.77,6.77,0,0,1-5.88-8.58,6.87,6.87,0,0,1,3-3.67,6.46,6.46,0,0,1,3-.94,4.12,4.12,0,0,1,.87.05c.19,0,.29.05.29.07s-.42,0-1.15.08a6.8,6.8,0,0,0-5.58,4.55,6.38,6.38,0,0,0,5.46,8,6.63,6.63,0,0,0,4.24-1.27,6.82,6.82,0,0,0,2-2.29C362.27,148.26,362.36,147.86,362.42,147.87Z" transform="translate(1.36 -44.48)"/><path class="cls-16" d="M350.29,148.12c-.05,0-.34-.54.13-1.32a2.21,2.21,0,0,1,1.19-.93,4.37,4.37,0,0,1,1.78-.19,8.2,8.2,0,0,1,4.25,1.27c-.06.14-1.9-.58-4.28-.75a2.88,2.88,0,0,0-2.64.81A2.71,2.71,0,0,0,350.29,148.12Z" transform="translate(1.36 -44.48)"/><path class="cls-16" d="M344.15,114.4a12,12,0,0,0-1.53,4.27,30.09,30.09,0,0,0-.24,5,32.65,32.65,0,0,0,.54,6,29.9,29.9,0,0,0,4.27,10.12c.81,1.17,1.52,2.07,2,2.68a10.07,10.07,0,0,1,.8.95,14.6,14.6,0,0,1-3.13-3.41,28,28,0,0,1-4.48-10.24,30.54,30.54,0,0,1-.51-6.15,27,27,0,0,1,.36-5,9.91,9.91,0,0,1,1.14-3.21A3.35,3.35,0,0,1,344.15,114.4Z" transform="translate(1.36 -44.48)"/><path class="cls-16" d="M349.33,126.26a7.59,7.59,0,0,1,1.4,1.71,29.08,29.08,0,0,1,2.66,4.63,28.78,28.78,0,0,1,1.76,5.05,7.91,7.91,0,0,1,.34,2.19c-.16,0-.84-3.27-2.57-7S349.19,126.36,349.33,126.26Z" transform="translate(1.36 -44.48)"/><path class="cls-16" d="M347.64,132.49c.1-.09,1.79,1.61,4,3.59a30.39,30.39,0,0,1,3.86,3.76,25.65,25.65,0,0,1-4.21-3.37A17.93,17.93,0,0,1,347.64,132.49Z" transform="translate(1.36 -44.48)"/><path class="cls-2" d="M373.81,156a.67.67,0,0,1-.15.14l-.44.38c-.38.32-1,.76-1.7,1.27a25.78,25.78,0,0,1-13.19,4.33c-.9,0-1.63,0-2.13,0l-.57,0-.2,0a.8.8,0,0,1,.2,0h.58c.5,0,1.22,0,2.11-.06a27.22,27.22,0,0,0,13.12-4.31c.75-.48,1.34-.9,1.73-1.21l.47-.34A.61.61,0,0,1,373.81,156Z" transform="translate(1.36 -44.48)"/><path class="cls-2" d="M379.7,168.05a.67.67,0,0,1-.15.14l-.44.37c-.39.33-1,.76-1.72,1.27a28.49,28.49,0,0,1-6.26,3.16,28.94,28.94,0,0,1-6.84,1.56,19,19,0,0,1-2.12.12h-.78s.06,0,.2,0l.57,0c.5,0,1.23-.08,2.11-.19a30.53,30.53,0,0,0,13-4.7c.75-.48,1.35-.9,1.75-1.2l.47-.34Z" transform="translate(1.36 -44.48)"/><path class="cls-2" d="M378.06,185.71a2.53,2.53,0,0,1-.42.31c-.28.19-.7.44-1.23.74a20,20,0,0,1-4.4,1.73,19.73,19.73,0,0,1-4.69.64,14.18,14.18,0,0,1-1.43,0l-.52-.06a2.15,2.15,0,0,1,.52,0c.34,0,.83,0,1.43,0a22.05,22.05,0,0,0,4.64-.69,22.43,22.43,0,0,0,4.38-1.67c.54-.27,1-.5,1.26-.67A1.77,1.77,0,0,1,378.06,185.71Z" transform="translate(1.36 -44.48)"/><path class="cls-2" d="M381.46,183a5,5,0,0,1-1.35.36,4.44,4.44,0,0,1-1.39.16,4.74,4.74,0,0,1,1.35-.36A4.42,4.42,0,0,1,381.46,183Z" transform="translate(1.36 -44.48)"/><path class="cls-2" d="M371.53,203.76a7,7,0,0,1-2.28.12,6.83,6.83,0,0,1-2.24-.45c0-.06,1,.15,2.26.24S371.53,203.7,371.53,203.76Z" transform="translate(1.36 -44.48)"/><path class="cls-2" d="M352.56,151.47a6.34,6.34,0,0,1-1.34.85,6,6,0,0,1-1.43.67,6.1,6.1,0,0,1,1.33-.85A6.17,6.17,0,0,1,352.56,151.47Z" transform="translate(1.36 -44.48)"/><path class="cls-2" d="M347.59,141a18.16,18.16,0,0,0-2.95,1.59,18,18,0,0,0-2.47,2.26,3.31,3.31,0,0,1,.58-.81,9.78,9.78,0,0,1,3.88-2.76A3.73,3.73,0,0,1,347.59,141Z" transform="translate(1.36 -44.48)"/><path class="cls-2" d="M356.6,152.6a13.68,13.68,0,0,0,0-3,14.22,14.22,0,0,0-.82-2.92,2.61,2.61,0,0,1,.44.78,7.66,7.66,0,0,1,.56,4.29A3,3,0,0,1,356.6,152.6Z" transform="translate(1.36 -44.48)"/><path class="cls-2" d="M387.54,120a12.37,12.37,0,0,1-1.1,1.17,21.84,21.84,0,0,1-3.46,2.66,44,44,0,0,1-5.75,3c-2.22,1-4.72,2-7.25,3.18a28.23,28.23,0,0,0-6.63,4.23,16.68,16.68,0,0,0-3.89,5.07,11.85,11.85,0,0,0-1.19,4.15c-.09,1,0,1.59,0,1.59s0-.14,0-.41a9.62,9.62,0,0,1,0-1.19,11.84,11.84,0,0,1,1.13-4.2,16.7,16.7,0,0,1,3.9-5.15,28.2,28.2,0,0,1,6.67-4.28c2.54-1.22,5-2.19,7.27-3.16a45.35,45.35,0,0,0,5.74-2.92,23.2,23.2,0,0,0,3.49-2.6c.37-.35.66-.62.85-.82Z" transform="translate(1.36 -44.48)"/><path class="cls-2" d="M384.83,131.85a1.3,1.3,0,0,1-.13.23c-.13.19-.26.4-.42.62-.35.55-.92,1.31-1.65,2.23a39.5,39.5,0,0,1-14.32,11.12c-1.07.48-1.95.84-2.57,1l-.71.25a1.17,1.17,0,0,1-.25.07.86.86,0,0,1,.24-.11l.69-.29c.61-.23,1.48-.61,2.53-1.11a41.74,41.74,0,0,0,14.28-11.08c.74-.89,1.32-1.64,1.7-2.17l.45-.61Z" transform="translate(1.36 -44.48)"/><path class="cls-2" d="M343.09,117.8a18.89,18.89,0,0,1,3,1.6,25.19,25.19,0,0,1,10.13,12.78,19.57,19.57,0,0,1,.87,3.32,1.33,1.33,0,0,1-.08-.23l-.17-.65a24.1,24.1,0,0,0-.76-2.39A26.05,26.05,0,0,0,346,119.53a22.62,22.62,0,0,0-2.14-1.28l-.6-.33A.88.88,0,0,1,343.09,117.8Z" transform="translate(1.36 -44.48)"/><path class="cls-16" d="M292.94,155.4c.39,5.3-3.11,10-6.63,14s-7.45,8.12-8.22,13.38c-1.35,9.33,7.78,18,5.9,27.21-1,4.95-5.06,8.92-5.78,13.91-.7,4.84,1.89,9.57,5.1,13.25s6.93,3.14,9.76,7.11a40.13,40.13,0,0,0,12.32,10.95c10.23,5.6,22.51-2.51,27.44-4" transform="translate(1.36 -44.48)"/><path class="cls-16" d="M370.29,177.13c4.71-2.06,5.08-18.95-6.74-20.9-4.75-.79-8.7-3.1-12.69-5.79-3.53-2.37-4.58-8.41-7.57-11.44a29.6,29.6,0,0,0-49.78,13.58c-1.72,6.85-.55,14.94,4.85,19.49,6.26,5.28,15.55,4.11,23.57,2.47S339,171.27,345.74,176c4,2.84,6.36,7.46,8.83,11.74s5.57,8.65,10.24,10.25c0,0,3.55,8.36.65,14.18s3.41-4.1,3.41-4.1,11.52-20.48,1.42-30.93" transform="translate(1.36 -44.48)"/><path class="cls-14" d="M310.37,295.71c-.06-11,0-42,0-41.95s-17.52-2.95-21.1-25.83c-1.78-11.38-1.17-30-.17-45.26.89-13.72,10-30.53,23.69-29.06l42.66,10.89a8,8,0,0,1,7.18,8.17h0l-2.6,106Z" transform="translate(1.36 -44.48)"/><path class="cls-16" d="M296.36,195.74a2.93,2.93,0,0,0,2.82,3,2.81,2.81,0,0,0,3-2.64,2.94,2.94,0,0,0-2.82-3A2.81,2.81,0,0,0,296.36,195.74Z" transform="translate(1.36 -44.48)"/><path class="cls-16" d="M293.12,192.38c.36.38,2.59-1.26,5.75-1.24s5.46,1.59,5.8,1.21c.17-.17-.2-.86-1.2-1.6a8,8,0,0,0-4.65-1.44,7.65,7.65,0,0,0-4.57,1.46C293.27,191.51,292.94,192.2,293.12,192.38Z" transform="translate(1.36 -44.48)"/><path class="cls-16" d="M324.14,197.41c.37.38,2.59-1.26,5.75-1.24s5.46,1.59,5.81,1.21c.17-.17-.2-.86-1.21-1.6a8.09,8.09,0,0,0-4.65-1.45,7.74,7.74,0,0,0-4.57,1.47C324.3,196.54,324,197.23,324.14,197.41Z" transform="translate(1.36 -44.48)"/><path class="cls-16" d="M312.64,216.41c0-.17-1.95-.52-5.13-.93-.8-.09-1.57-.25-1.7-.8a4.12,4.12,0,0,1,.54-2.39c.77-1.95,1.56-4,2.4-6.13,3.33-8.73,5.74-15.91,5.39-16s-3.34,6.84-6.67,15.57c-.8,2.15-1.57,4.21-2.29,6.17a4.63,4.63,0,0,0-.43,3.16,2,2,0,0,0,1.32,1.18,5.73,5.73,0,0,0,1.37.2C310.64,216.58,312.63,216.59,312.64,216.41Z" transform="translate(1.36 -44.48)"/><path class="cls-15" d="M310.37,253.76a58.26,58.26,0,0,0,30.65-8.1c-.26.05-8.43,15.89-30.35,13.5Z" transform="translate(1.36 -44.48)"/><path class="cls-15" d="M313.55,225.53c-.38-1.95,1.91-2.58,3.59-3.62s2.64-2.43,4.22-1.24a6.21,6.21,0,0,1,1.94,2.73,3.71,3.71,0,0,1-1.09,4.57,6.71,6.71,0,0,1-3.43,1.79,4.8,4.8,0,0,1-3.71-.87,3.75,3.75,0,0,1-1.41-3.46" transform="translate(1.36 -44.48)"/><path class="cls-16" d="M321.92,218.62c-.51,0-.53,3.39-3.46,5.82s-6.59,2-6.62,2.52c0,.21.82.66,2.36.71a8.59,8.59,0,0,0,5.52-1.91,7.42,7.42,0,0,0,2.68-4.88C322.54,219.45,322.16,218.6,321.92,218.62Z" transform="translate(1.36 -44.48)"/><path class="cls-16" d="M323.67,190.35c.31.86,3.47.46,7.17.92s6.69,1.47,7.19.7c.22-.37-.3-1.18-1.51-2a12.51,12.51,0,0,0-10.93-1.23C324.23,189.27,323.54,190,323.67,190.35Z" transform="translate(1.36 -44.48)"/><path class="cls-16" d="M293.56,181.46c.55.72,2.73,0,5.34-.05s4.83.49,5.34-.26c.23-.36-.12-1.08-1.09-1.76a7.74,7.74,0,0,0-8.6.25C293.62,180.37,293.32,181.11,293.56,181.46Z" transform="translate(1.36 -44.48)"/><path class="cls-16" d="M365.13,241c-6.29,1.27-6.85-1.93-11.55-6.3a20.64,20.64,0,0,1-6.32-17.42c.71-5.62,3.74-11.33,1.79-16.65-2.57-7-12.42-9.19-15-16.2-1.52-4.08-.15-8.85-1.88-12.84-1.62-3.76-5.57-5.92-9.42-7.31s-8-2.36-11.2-4.87-5.24-7.25-3.16-10.77a216.47,216.47,0,0,1,50,12.15c3.74,1.39,7.66,3.07,9.86,6.38,2.34,3.51,2.23,8.05,2,12.26q-1.44,30.8-2.87,61.6" transform="translate(1.36 -44.48)"/><path class="cls-17" d="M379.7,233.33s.1-.09.25-.29a7,7,0,0,0,.63-.91,12.06,12.06,0,0,0,1.51-4,14,14,0,0,0-.37-6.75,12.84,12.84,0,0,0-5.32-7.16c-2.71-1.91-6.25-3.25-8.49-6.29a6.88,6.88,0,0,1-1.24-5.37,30.06,30.06,0,0,1,2-5.94,17.05,17.05,0,0,0-.3-13.65,14.76,14.76,0,0,0-4.64-5.76,18.06,18.06,0,0,0-7-2.91c-2.48-.57-4.95-.89-7.24-1.59a14.15,14.15,0,0,1-6.07-3.31,10.09,10.09,0,0,1-2.63-6,50.63,50.63,0,0,0-1.07-6.65,22.9,22.9,0,0,0-6.18-10.82,18,18,0,0,0-9.71-4.82,14.43,14.43,0,0,0-8.84,1.34,14,14,0,0,0-5.12,4.42,11.94,11.94,0,0,0-1.78,3.88,6.27,6.27,0,0,0-.23,1.48,14.64,14.64,0,0,1,2.33-5.13,13.8,13.8,0,0,1,13.53-5.29,17.47,17.47,0,0,1,9.25,4.72A22.17,22.17,0,0,1,338.8,157a50.3,50.3,0,0,1,1,6.56,11.06,11.06,0,0,0,2.88,6.55,15.17,15.17,0,0,0,6.48,3.58c2.4.73,4.88,1.05,7.31,1.61a17.26,17.26,0,0,1,6.64,2.73,14,14,0,0,1,4.34,5.38,16.14,16.14,0,0,1,.32,12.91,31.61,31.61,0,0,0-2,6.13,7.74,7.74,0,0,0,1.45,6c2.49,3.28,6.13,4.56,8.76,6.39a12.34,12.34,0,0,1,5.19,6.74,14.11,14.11,0,0,1,.52,6.51A15.41,15.41,0,0,1,379.7,233.33Z" transform="translate(1.36 -44.48)"/><path class="cls-16" d="M350,210.6a57.91,57.91,0,0,0-2.68,38.15c1,3.74,2.47,7.62,1.59,11.4-1,4.09-4.38,7.05-6.88,10.43a25.75,25.75,0,0,0,7.89,37.63c.66-3.77,4.16-6.33,7.61-8s7.27-2.85,9.9-5.62,3.38-7.84.32-10.12c8.8-2.3,13.79-12.76,11.94-21.67s-9.1-15.95-17.34-19.8" transform="translate(1.36 -44.48)"/><path class="cls-16" d="M359.33,299.41c-1.57.86-3.1,1.63-3.29,3.42-.23,2.09,1.78,5.77,2.5,7.75a10.77,10.77,0,0,1-14.07,13.7c2.81.22,5.2-2.53,5.46-5.35s-1.12-5.53-2.8-7.8-3.71-4.29-5.13-6.73c-2.9-5-7.21-18.49-3.9-26.06" transform="translate(1.36 -44.48)"/><path class="cls-17" d="M367.34,284.85a3.48,3.48,0,0,1,.54-.45c.37-.28.9-.71,1.57-1.27a35.39,35.39,0,0,0,5.14-5.32,26.84,26.84,0,0,0,4.87-9.72,21.94,21.94,0,0,0-.64-13.13,19.67,19.67,0,0,0-3.62-5.84c-1.47-1.69-3.08-3.17-4.58-4.6a49.25,49.25,0,0,1-4.11-4.27,18.57,18.57,0,0,1-2.69-4.43,11.68,11.68,0,0,1-.88-7.35,8,8,0,0,1,.75-1.89,3.36,3.36,0,0,1,.39-.6,12.34,12.34,0,0,0-.94,2.54,11.72,11.72,0,0,0,1,7.15,18.16,18.16,0,0,0,2.69,4.3,48.59,48.59,0,0,0,4.1,4.2c1.51,1.42,3.13,2.9,4.63,4.61a19.78,19.78,0,0,1,3.72,6,22.18,22.18,0,0,1,.63,13.44,26.73,26.73,0,0,1-5.05,9.83,32.55,32.55,0,0,1-5.3,5.24c-.7.55-1.25,1-1.64,1.2A2.86,2.86,0,0,1,367.34,284.85Z" transform="translate(1.36 -44.48)"/></g><g id="Plant"><path class="cls-18" d="M79.94,404.29c2.53,3.17,7,1.79,8.93-.37s2.67-5.14,3.29-8c1.44-6.51,2.87-13.32,1.1-19.74A11,11,0,0,0,90.42,371a5.71,5.71,0,0,0-5.5-1.45c-2.24.74-3.51,3.06-4.4,5.24a46.8,46.8,0,0,0-3.35,20.33c.19,3.23.78,6.59,2.77,9.14" transform="translate(1.36 -44.48)"/><g class="cls-21"><path d="M79.94,404.29c2.53,3.17,7,1.79,8.93-.37s2.67-5.14,3.29-8c1.44-6.51,2.87-13.32,1.1-19.74A11,11,0,0,0,90.42,371a5.71,5.71,0,0,0-5.5-1.45c-2.24.74-3.51,3.06-4.4,5.24a46.8,46.8,0,0,0-3.35,20.33c.19,3.23.78,6.59,2.77,9.14" transform="translate(1.36 -44.48)"/></g><path class="cls-18" d="M89.69,420.52a20.2,20.2,0,0,1,12.38-2.3c2.28.23,4.69.76,6.33,2.36s2.13,4.58.45,6.15A5.88,5.88,0,0,1,105,428c-3.3.17-7-.18-9.5,2-1.44,1.23-2.32,3.17-4.08,3.84a4.26,4.26,0,0,1-4.8-1.79,7.23,7.23,0,0,1-.87-5.32A8.19,8.19,0,0,1,89.69,420.52Z" transform="translate(1.36 -44.48)"/><path class="cls-18" d="M73.87,409.44c2.33-3.14,2.54-7.53,1.18-11.21a21.51,21.51,0,0,0-7.17-9.12,35.54,35.54,0,0,0-12.21-6.2,12.45,12.45,0,0,0-5.34-.56,5.56,5.56,0,0,0-4.28,3c-1.08,2.44.28,5.23,1.71,7.49a91.24,91.24,0,0,0,8.47,11.28c2.51,2.84,5.35,5.62,9,6.75s7.27.74,9-1.83" transform="translate(1.36 -44.48)"/><path class="cls-22" d="M82.93,454.28a7.75,7.75,0,0,0,.12-1.52c0-1.1.08-2.49.14-4.13a58.5,58.5,0,0,1,.54-6.09,47.94,47.94,0,0,1,1.74-7.25,26.44,26.44,0,0,1,3.23-6.66,13.57,13.57,0,0,1,4.35-4.11,12.84,12.84,0,0,1,3.8-1.45,7.67,7.67,0,0,0,1.48-.31,7.07,7.07,0,0,0-1.53.07,11.79,11.79,0,0,0-4,1.31,13.49,13.49,0,0,0-4.6,4.15,25.84,25.84,0,0,0-3.36,6.8,44.65,44.65,0,0,0-1.72,7.37,50,50,0,0,0-.41,6.15c0,1.76,0,3.17,0,4.15A7.17,7.17,0,0,0,82.93,454.28Z" transform="translate(1.36 -44.48)"/><path class="cls-22" d="M83,451.1a3.71,3.71,0,0,0,0-.7c0-.53-.08-1.19-.13-2-.11-1.73-.27-4.24-.37-7.35-.24-6.2-.24-14.79.19-24.25s1.29-18,2.17-24.17c.2-1.54.41-2.92.62-4.14s.35-2.27.52-3.12.25-1.45.34-2a2.65,2.65,0,0,0,.08-.7,3.18,3.18,0,0,0-.2.67c-.12.51-.27,1.16-.46,1.95s-.4,1.89-.63,3.11-.48,2.6-.71,4.14a226.89,226.89,0,0,0-2.35,24.2c-.44,9.48-.36,18.09,0,24.3.16,3.11.38,5.62.57,7.35.1.81.18,1.47.25,2A2.26,2.26,0,0,0,83,451.1Z" transform="translate(1.36 -44.48)"/><path class="cls-22" d="M82,434.55a15.17,15.17,0,0,0-.15-2.08,56.89,56.89,0,0,0-1-5.62,72.86,72.86,0,0,0-2.35-8.12,74.05,74.05,0,0,0-4.06-9.53,51.78,51.78,0,0,0-11.11-15.11A25.74,25.74,0,0,0,60.83,392c-.38-.28-.72-.57-1.07-.79l-1-.58a12.65,12.65,0,0,0-1.83-1,60.66,60.66,0,0,1,6.08,4.77A54.64,54.64,0,0,1,73.9,409.48,77.84,77.84,0,0,1,78,418.92c1.09,3,1.87,5.72,2.47,8s1,4.22,1.18,5.54A12.25,12.25,0,0,0,82,434.55Z" transform="translate(1.36 -44.48)"/></g><g id="Confetti"><path class="cls-6" d="M234.59,205.76c-1.85-6.54-10.34-5.9-10.34-5.9l.23,4.54c4.91-.84,8,4.91,8,4.91Z" transform="translate(1.36 -44.48)"/><path class="cls-6" d="M151,129.74c-4.59.49-5.14,6.25-5.14,6.25l3.07.36c0-3.38,4.2-4.76,4.2-4.76Z" transform="translate(1.36 -44.48)"/><path class="cls-9" d="M193.72,68.77c2.8,7.12,12.25,5.47,12.25,5.47l-.77-5.08c-5.41,1.5-9.47-4.61-9.47-4.61Z" transform="translate(1.36 -44.48)"/><path class="cls-9" d="M87.09,189.13c-4.59.49-5.14,6.24-5.14,6.24l3.07.37c0-3.38,4.2-4.77,4.2-4.77Z" transform="translate(1.36 -44.48)"/><path class="cls-6" d="M106,91.53C106.64,87,101.2,85,101.2,85l-1.12,2.89c3.28.83,3.58,5.24,3.58,5.24Z" transform="translate(1.36 -44.48)"/><path class="cls-6" d="M30.19,183c-.82,7.16,8.65,8.89,8.65,8.89l1.71-4.68c-5.68-.52-6.5-7.21-6.5-7.21Z" transform="translate(1.36 -44.48)"/><path class="cls-6" d="M252.78,127c4.6.26,6.07-5.33,6.07-5.33l-3-.85c-.55,3.34-4.92,4-4.92,4Z" transform="translate(1.36 -44.48)"/></g></svg>